<svg width="32" height="29" viewBox="0 0 32 29" fill="none" xmlns="http://www.w3.org/2000/svg">
<path d="M15.9909 2.6555C9.01587 -3.44516 0.14723 1.91505 0.00180337 9.18169C-0.0352563 11.0336 0.499328 12.8375 1.56343 14.5006H8.46066L9.68744 12.4559C10.0437 11.8622 10.9057 11.8431 11.2821 12.4349L13.8705 16.5023L17.6435 8.53724C17.9726 7.84223 18.9532 7.82017 19.3161 8.49411L22.5503 14.5006H30.4184C36.2468 5.39129 24.7279 -4.98611 15.9909 2.6555Z" fill="white"/>
<path d="M21.1651 15.8824L18.5443 11.0152L14.8382 18.839C14.5229 19.5046 13.5956 19.5625 13.2002 18.941L10.5148 14.7211L9.79525 15.9203C9.62582 16.2026 9.32072 16.3754 8.99143 16.3754H3.04639C3.23275 16.5704 2.23951 15.5792 15.3297 28.6016C15.6953 28.9654 16.2863 28.9654 16.652 28.6016C29.5407 15.7796 28.7493 16.5701 28.9353 16.3754H21.9904C21.6455 16.3754 21.3286 16.1861 21.1651 15.8824Z" fill="white"/>
</svg>
